<!DOCTYPE svg PUBLIC "-//W3C//DTD SVG 20010904//EN" "http://www.w3.org/TR/2001/REC-SVG-20010904/DTD/svg10.dtd">
<svg version="1.0" xmlns="http://www.w3.org/2000/svg" width="50px" height="42px" viewBox="0 0 4730 3960" preserveAspectRatio="xMidYMid meet">
<g id="layer101" fill="#000" stroke="none">
 <path d="M1834 3941 l-51 -6 -544 -548 c-603 -608 -573 -571 -586 -721 -15 -188 58 -410 204 -614 67 -93 179 -222 194 -222 5 0 -1 21 -14 48 -51 100 -59 217 -23 307 13 31 156 177 621 630 l604 590 17 94 c40 223 -20 366 -178 421 -62 21 -171 31 -244 21z"/>
 <path d="M2762 3925 c-61 -19 -109 -59 -137 -116 -38 -74 -51 -210 -29 -316 2 -13 172 -206 377 -430 1012 -1108 1016 -1114 1097 -1278 83 -168 113 -332 87 -479 l-14 -78 211 213 c219 222 258 273 302 394 57 158 53 294 -14 422 -33 64 -121 161 -771 845 -800 843 -743 791 -894 822 -91 19 -157 19 -215 1z"/>
 <path d="M372 2499 c-114 -116 -221 -234 -239 -263 -79 -126 -113 -271 -93 -403 24 -159 -12 -116 809 -988 l744 -790 66 -18 c80 -22 280 -27 326 -8 94 39 148 113 164 222 8 65 0 176 -15 201 -5 7 -291 321 -637 696 -346 376 -651 712 -677 748 -105 137 -196 322 -230 468 -21 86 -26 241 -11 309 5 20 7 37 4 37 -3 0 -98 -95 -211 -211z"/>
 <path d="M3700 2059 c47 -101 57 -172 36 -256 -9 -38 -31 -88 -49 -115 -17 -25 -294 -292 -614 -593 -319 -301 -584 -556 -588 -568 -3 -12 -9 -76 -12 -143 -7 -141 8 -207 60 -275 62 -82 191 -121 333 -101 l75 10 552 557 c390 394 556 568 566 594 22 58 26 244 7 325 -45 192 -182 423 -346 581 l-51 50 31 -66z"/>
 </g>

</svg>