<svg id="svg" version="1.1" xmlns="http://www.w3.org/2000/svg" xmlns:xlink="http://www.w3.org/1999/xlink" width="400"
     height="731.6666666666666" viewBox="0, 0, 400,731.6666666666666">
    <g id="svg">
        <path id="path0"
              d="M338.167 272.859 C 333.205 273.552,331.677 273.838,328.333 274.697 C 322.512 276.195,319.397 277.892,316.794 280.986 C 315.581 282.427,315.824 282.478,319.206 281.496 C 335.354 276.804,347.572 279.781,356.518 290.587 C 373.569 311.186,355.572 340.796,311.375 364.858 C 307.241 367.108,304.137 369.581,304.717 370.162 C 305.163 370.607,323.100 364.837,330.833 361.761 C 371.017 345.779,390.949 319.450,380.985 295.515 C 374.847 280.771,355.355 270.458,338.167 272.859 M136.167 277.562 C 112.646 278.769,76.170 289.365,62.751 298.888 C 32.539 320.328,178.653 329.414,268.037 311.654 C 281.051 309.068,284.137 308.141,288.167 305.613 C 290.183 304.347,295.323 301.569,299.588 299.439 C 303.854 297.308,307.304 295.533,307.255 295.493 C 307.206 295.453,304.167 295.925,300.500 296.542 C 209.707 311.812,91.256 312.906,94.814 298.441 C 96.013 293.564,120.551 283.475,143.750 278.320 C 147.630 277.458,144.430 277.138,136.167 277.562 M123.833 333.750 C 97.089 342.453,90.707 353.859,107.833 362.349 C 138.467 377.536,216.256 377.455,276.167 362.173 C 288.199 359.104,289.419 358.671,287.417 358.181 C 284.127 357.377,275.968 352.644,270.872 348.583 C 267.563 345.947,268.395 346.038,260.651 347.474 C 216.806 355.608,184.758 357.087,141.167 352.986 C 118.663 350.869,113.031 345.737,122.571 336.040 C 125.252 333.315,125.270 333.282,123.833 333.750 M131.388 389.168 C 97.775 400.458,111.663 418.978,159.245 426.314 C 197.630 432.232,241.320 427.057,277.749 412.277 C 280.208 411.280,280.363 411.461,275.243 409.342 C 270.002 407.174,259.705 402.126,255.500 399.664 L 252.500 397.908 249.333 398.463 C 208.235 405.667,190.530 406.490,155.667 402.820 C 132.766 400.409,126.054 395.957,135.015 389.122 C 137.562 387.180,137.298 387.183,131.388 389.168 M78.883 423.675 C 50.188 426.961,19.333 441.785,19.333 452.285 C 19.333 459.176,27.474 462.749,51.667 466.478 C 141.293 480.290,239.740 479.203,309.000 463.637 C 351.425 454.102,371.485 440.405,357.517 430.510 C 353.584 427.724,351.245 426.886,353.009 428.895 C 358.661 435.331,353.637 442.120,339.667 446.927 C 299.007 460.918,175.945 467.214,104.000 458.984 C 73.791 455.528,52.437 449.685,50.856 444.441 C 48.987 438.242,74.057 428.161,95.667 426.422 L 98.833 426.167 97.333 425.431 C 93.790 423.693,85.563 422.910,78.883 423.675 M382.412 454.051 C 373.477 465.676,337.591 477.587,290.725 484.482 C 254.213 489.854,221.393 491.917,178.012 491.567 C 155.801 491.387,150.508 491.216,134.500 490.156 C 118.026 489.066,89.318 485.921,85.583 484.797 C 84.413 484.445,85.041 485.250,86.583 486.078 C 110.020 498.672,204.077 503.682,278.500 496.300 C 342.326 489.970,379.345 475.406,383.350 455.050 C 383.857 452.473,383.730 452.337,382.412 454.051 M32.993 597.250 C 32.985 675.286,32.854 680.012,30.465 688.254 C 28.027 696.667,21.045 704.739,11.071 710.674 C 8.118 712.431,7.787 711.585,14.511 719.468 L 20.055 725.969 21.777 725.296 C 39.522 718.364,52.207 704.724,55.639 688.885 C 57.532 680.146,57.449 683.779,57.573 604.583 L 57.688 531.667 45.344 531.667 L 33.000 531.667 32.993 597.250 M114.667 570.038 C 103.426 571.030,87.255 575.205,80.830 578.773 L 80.120 579.167 81.832 586.333 C 83.118 591.719,83.662 593.483,84.022 593.431 C 84.285 593.393,86.830 592.624,89.677 591.723 C 113.432 584.203,132.256 585.844,137.579 595.899 C 139.541 599.605,139.750 600.797,139.917 609.250 L 140.070 617.000 135.952 617.003 C 93.584 617.036,73.285 630.594,74.434 658.093 C 75.236 677.268,86.789 687.175,108.333 687.163 C 120.847 687.156,130.314 683.626,140.948 675.001 C 142.111 674.057,143.131 673.354,143.215 673.437 C 143.345 673.568,145.000 684.054,145.000 684.750 C 145.000 684.887,149.206 685.000,154.347 685.000 L 163.695 685.000 163.580 641.583 C 163.453 593.607,163.578 596.486,161.358 590.189 C 156.006 575.008,139.424 567.852,114.667 570.038 M325.500 570.027 C 317.951 570.738,309.016 572.577,302.173 574.828 C 297.320 576.425,291.623 578.725,291.459 579.154 C 291.329 579.493,294.485 593.262,294.754 593.532 C 294.818 593.596,296.437 593.119,298.352 592.473 C 319.883 585.206,338.352 585.232,346.013 592.539 C 349.942 596.287,350.964 599.684,351.240 609.917 L 351.431 617.000 347.132 617.003 C 304.811 617.033,284.034 630.901,285.461 658.167 C 286.453 677.143,298.230 687.333,319.167 687.333 C 330.799 687.333,339.853 684.148,350.104 676.449 C 352.339 674.771,354.260 673.496,354.375 673.616 C 354.489 673.735,354.934 676.346,355.365 679.417 L 356.147 685.000 365.407 685.000 L 374.667 685.000 374.665 642.750 C 374.663 596.306,374.691 597.042,372.636 590.845 C 367.442 575.179,350.453 567.676,325.500 570.027 M177.004 572.079 C 177.006 572.311,184.775 597.775,194.269 628.667 L 211.530 684.833 226.218 684.920 L 240.905 685.007 243.832 678.420 C 256.979 648.830,267.160 615.925,274.146 580.447 C 274.983 576.201,275.667 572.488,275.667 572.197 C 275.667 571.722,274.385 571.667,263.340 571.667 L 251.013 571.667 250.850 572.417 C 250.761 572.829,250.525 574.367,250.325 575.833 C 248.352 590.350,243.647 612.561,239.136 628.655 C 236.180 639.198,229.135 661.000,228.684 661.000 C 228.569 661.000,227.458 656.537,226.214 651.083 C 224.221 642.344,222.675 637.052,213.192 606.500 L 202.431 571.833 189.716 571.746 C 179.654 571.677,177.001 571.747,177.004 572.079 M376.667 572.833 C 376.667 573.583,376.800 573.667,378.000 573.667 L 379.333 573.667 379.333 577.500 L 379.333 581.333 380.333 581.333 L 381.333 581.333 381.333 577.500 L 381.333 573.667 382.667 573.667 C 383.867 573.667,384.000 573.583,384.000 572.833 L 384.000 572.000 380.333 572.000 L 376.667 572.000 376.667 572.833 M385.333 576.648 L 385.333 581.333 386.321 581.333 L 387.309 581.333 387.405 578.083 L 387.500 574.833 388.662 578.098 C 390.226 582.489,390.901 582.530,392.527 578.333 L 393.624 575.500 393.645 578.417 L 393.667 581.333 394.833 581.333 L 396.000 581.333 396.000 576.667 L 396.000 572.000 394.412 572.000 L 392.823 572.000 392.250 573.614 C 391.935 574.502,391.434 575.808,391.138 576.516 L 390.600 577.804 389.515 574.985 L 388.431 572.167 386.882 572.065 L 385.333 571.963 385.333 576.648 M140.000 645.613 L 140.000 658.894 136.829 661.268 C 117.093 676.045,97.741 671.526,97.859 652.167 C 97.924 641.380,104.129 635.345,117.377 633.185 C 121.874 632.452,121.994 632.445,131.417 632.387 L 140.000 632.333 140.000 645.613 M351.254 645.577 L 351.167 658.821 348.090 661.161 C 328.530 676.034,309.032 671.624,309.005 652.320 C 308.985 638.044,318.379 632.463,342.587 632.368 L 351.341 632.333 351.254 645.577 "
              stroke="none" fill="#5484a4" fill-rule="evenodd"></path>
        <path id="path1"
              d="M250.810 6.333 C 260.301 47.709,247.327 73.250,196.465 113.321 C 163.618 139.199,153.325 148.804,144.512 161.804 C 126.725 188.038,138.186 216.505,184.167 260.297 C 194.315 269.962,202.066 277.045,202.271 276.840 C 203.098 276.013,195.236 263.168,184.294 247.467 C 178.382 238.984,174.597 233.155,171.717 228.102 C 153.052 195.345,161.984 168.713,202.583 136.065 C 232.160 112.282,250.157 90.751,258.779 68.833 C 266.883 48.233,265.514 26.831,255.081 11.000 C 252.945 7.760,250.533 5.123,250.810 6.333 M307.667 107.866 C 271.576 118.518,240.406 134.642,222.717 151.809 C 195.429 178.289,195.592 207.605,223.211 240.874 C 237.565 258.165,236.673 275.019,220.537 291.410 C 217.494 294.500,217.429 294.701,219.917 293.313 C 237.715 283.386,252.297 268.159,256.608 255.000 C 260.629 242.725,258.339 233.879,247.037 218.043 C 234.000 199.775,230.663 192.675,230.669 183.228 C 230.682 163.654,252.475 142.739,306.083 110.852 C 314.293 105.969,314.330 105.900,307.667 107.866 "
              stroke="none" fill="#fb9c14" fill-rule="evenodd"></path>
        <path id="path2" d="" stroke="none" fill="#7c90a8" fill-rule="evenodd"></path>
        <path id="path3" d="" stroke="none" fill="#7c90a8" fill-rule="evenodd"></path>
        <path id="path4" d="" stroke="none" fill="#7c90a8" fill-rule="evenodd"></path>
    </g>
</svg>